<?xml version="1.0" encoding="UTF-8"?>
<svg id="Ebene_1" xmlns="http://www.w3.org/2000/svg" version="1.1" viewBox="0 0 128 128">
  <!-- Generator: Adobe Illustrator 30.2.1, SVG Export Plug-In . SVG Version: 2.1.1 Build 1)  -->
  <defs>
    <style>
      .st0 {
        fill: #8a5cf7;
      }

      .st1 {
        fill: #faf9ff;
      }
    </style>
  </defs>
  <rect class="st0" y="0" width="128" height="128"/>
  <g>
    <path class="st1" d="M24.92,77.63c0-8.9,6.81-13.53,20-13.53h6.11v-4.98c0-7.08-2.45-10.74-9-10.74-2.45,0-4.1.35-5.41.96v.43c1.14.61,2.53,2.1,2.53,4.63,0,3.49-2.27,6.2-6.63,6.2-3.49,0-6.11-2.71-6.11-6.46,0-5.67,6.63-11.26,19.3-11.26s18.6,5.76,18.6,15.55v25.49h5.24v4.98c-2,1.14-5.41,1.83-8.73,1.83-6.37,0-8.73-3.41-8.73-7.77v-.18h-.53c-1.66,3.84-4.54,7.94-12.49,7.94-9.86,0-14.14-4.89-14.14-13.1h0ZM51.04,76.24v-6.9h-4.71c-5.59,0-8.29,2.45-8.29,6.72v1.39c0,3.75,2.45,5.41,6.02,5.41,4.28,0,6.98-1.74,6.98-6.63h0Z"/>
    <path class="st1" d="M79.76,81.39v-31.35h-6.11v-6.11h2.36c3.84,0,5.24-1.75,6.81-5.06l3.67-7.59h6.55v12.66h10.04v6.11h-10.04v33.7h10.04v5.15c-1.83.78-7.08,1.66-13.1,1.66-6.98,0-10.22-3.14-10.22-9.17h0Z"/>
  </g>
</svg>